# Blender v2.80 (sub 75) OBJ File: ''
# www.blender.org
o Cylinder
v -0.210000 0.000000 -0.722390
v -0.176195 0.016902 -0.760724
v -0.176195 -0.016902 -0.760724
v -0.205484 0.008440 -0.739875
v -0.205484 -0.008440 -0.739875
v -0.201097 0.000000 -0.755915
v -0.176195 0.006204 -0.773088
v -0.193075 0.014644 -0.753946
v -0.192361 0.004368 -0.765821
v -0.193075 -0.014644 -0.753946
v -0.176195 -0.006204 -0.773088
v -0.192361 -0.004368 -0.765821
v 0.210000 -0.000000 -0.722390
v 0.176195 -0.016902 -0.760724
v 0.176195 0.016902 -0.760724
v 0.205484 -0.008440 -0.739875
v 0.205484 0.008440 -0.739875
v 0.201097 -0.000000 -0.755915
v 0.176195 -0.006204 -0.773088
v 0.193075 -0.014644 -0.753946
v 0.192361 -0.004368 -0.765821
v 0.193075 0.014644 -0.753946
v 0.176195 0.006204 -0.773088
v 0.192361 0.004368 -0.765821
v -0.210000 -0.807473 0.676195
v -0.176195 -0.849123 0.680724
v -0.176195 -0.832220 0.710000
v -0.205484 -0.826836 0.677628
v -0.205484 -0.818396 0.692247
v -0.201097 -0.836507 0.692957
v -0.176195 -0.854481 0.696171
v -0.193075 -0.842124 0.679291
v -0.192361 -0.847270 0.694128
v -0.193075 -0.827480 0.704656
v -0.176195 -0.848277 0.706917
v -0.192361 -0.842902 0.701693
v 0.210000 -0.807473 0.676195
v 0.176195 -0.832220 0.710000
v 0.176195 -0.849123 0.680724
v 0.205484 -0.818396 0.692247
v 0.205484 -0.826836 0.677628
v 0.201097 -0.836507 0.692957
v 0.176195 -0.848277 0.706917
v 0.193075 -0.827480 0.704656
v 0.192361 -0.842902 0.701693
v 0.193075 -0.842124 0.679291
v 0.176195 -0.854481 0.696171
v 0.192361 -0.847270 0.694128
v -0.210000 0.807474 0.676195
v -0.176195 0.832220 0.710000
v -0.176195 0.849123 0.680724
v -0.205484 0.818396 0.692247
v -0.205484 0.826836 0.677628
v -0.201097 0.836507 0.692957
v -0.176195 0.848277 0.706917
v -0.193075 0.827480 0.704655
v -0.192361 0.842902 0.701693
v -0.193075 0.842124 0.679291
v -0.176195 0.854481 0.696171
v -0.192361 0.847270 0.694128
v 0.210000 0.807474 0.676195
v 0.176195 0.849123 0.680724
v 0.176195 0.832220 0.710000
v 0.205484 0.826836 0.677628
v 0.205484 0.818396 0.692247
v 0.201097 0.836507 0.692957
v 0.176195 0.854481 0.696171
v 0.193075 0.842124 0.679291
v 0.192361 0.847270 0.694128
v 0.193075 0.827480 0.704655
v 0.176195 0.848277 0.706917
v 0.192361 0.842902 0.701693
vt 0.326828 0.540244
vt 0.326828 0.959756
vt 0.006506 0.959756
vt 0.006506 0.540244
vt 0.660161 0.540244
vt 0.660161 0.959756
vt 0.339839 0.959756
vt 0.339839 0.540244
vt 0.443794 0.138113
vt 0.250000 0.473774
vt 0.056206 0.138113
vt 0.993494 0.540244
vt 0.993494 0.959756
vt 0.673172 0.959756
vt 0.673172 0.540244
vt 0.750000 0.473774
vt 0.747974 0.477970
vt 0.750000 0.481820
vt 0.752026 0.477970
vt 0.745375 0.481988
vt 0.747225 0.485194
vt 0.003416 0.540244
vt 0.004450 0.520999
vt 0.007418 0.520148
vt -0.000000 0.540244
vt -0.000000 0.520999
vt 0.992582 0.520148
vt 0.995550 0.520999
vt 0.996584 0.540244
vt 0.990834 0.500000
vt 0.994319 0.500000
vt 0.752775 0.485194
vt 0.252026 0.477970
vt 0.250000 0.481820
vt 0.247974 0.477970
vt 0.254625 0.481988
vt 0.252775 0.485194
vt 0.996584 0.959756
vt 0.995550 0.979001
vt 0.992582 0.979852
vt 1.000000 0.959756
vt 1.000000 0.979001
vt 0.007418 0.979852
vt 0.004450 0.979001
vt 0.003416 0.959756
vt 0.009166 1.000000
vt 0.005681 1.000000
vt 0.247225 0.485194
vt 0.943794 0.138113
vt 0.948441 0.137769
vt 0.950762 0.134090
vt 0.946415 0.134261
vt 0.953221 0.138012
vt 0.955071 0.134806
vt 0.670082 0.540244
vt 0.671117 0.520999
vt 0.674085 0.520148
vt 0.663251 0.540244
vt 0.662217 0.520999
vt 0.659249 0.520148
vt 0.657500 0.500000
vt 0.660986 0.500000
vt 0.952296 0.130000
vt 0.446415 0.134261
vt 0.450762 0.134090
vt 0.448441 0.137769
vt 0.448595 0.130000
vt 0.452296 0.130000
vt 0.663251 0.959756
vt 0.662216 0.979001
vt 0.659248 0.979852
vt 0.670082 0.959756
vt 0.671117 0.979001
vt 0.674085 0.979852
vt 0.675833 1.000000
vt 0.672347 1.000000
vt 0.455071 0.134806
vt 0.556206 0.138113
vt 0.553585 0.134261
vt 0.549238 0.134090
vt 0.551559 0.137769
vt 0.551405 0.130000
vt 0.547704 0.130000
vt 0.336749 0.540244
vt 0.337783 0.520999
vt 0.340751 0.520148
vt 0.329918 0.540244
vt 0.328883 0.520999
vt 0.325915 0.520148
vt 0.324167 0.500000
vt 0.327652 0.500000
vt 0.544929 0.134806
vt 0.051559 0.137769
vt 0.049238 0.134090
vt 0.053585 0.134261
vt 0.046779 0.138012
vt 0.044929 0.134806
vt 0.329918 0.959756
vt 0.328883 0.979001
vt 0.325915 0.979852
vt 0.336749 0.959756
vt 0.337783 0.979001
vt 0.340751 0.979852
vt 0.342500 1.000000
vt 0.339014 1.000000
vt 0.047704 0.130000
vt 0.675833 0.500000
vt 0.990834 1.000000
vt -0.000000 0.959756
vt 0.342500 0.500000
vt 0.657500 1.000000
vt 0.009166 0.500000
vt 0.324167 1.000000
vn -0.1663 0.9004 -0.4021
vn 0.1663 0.9004 -0.4021
vn 0.1663 0.7984 -0.5787
vn -0.1663 0.7984 -0.5787
vn -0.1663 -0.1020 0.9808
vn 0.1663 -0.1020 0.9808
vn 0.1663 0.1020 0.9808
vn -0.1663 0.1020 0.9808
vn 0.9911 -0.1148 0.0663
vn 0.9911 0.0000 -0.1325
vn 0.9911 0.1148 0.0663
vn -0.1663 -0.7984 -0.5787
vn 0.1663 -0.7984 -0.5787
vn 0.1663 -0.9004 -0.4021
vn -0.1663 -0.9004 -0.4021
vn -0.9911 0.0000 -0.1325
vn -0.8919 0.3258 -0.3136
vn -0.8696 0.0000 -0.4937
vn -0.8919 -0.3258 -0.3136
vn -0.5447 0.6758 -0.4966
vn -0.5802 0.3421 -0.7391
vn -0.2005 0.3989 -0.8948
vn -0.2005 -0.3989 -0.8948
vn -0.5802 -0.3421 -0.7391
vn -0.5447 -0.6758 -0.4966
vn 0.8919 -0.3258 -0.3136
vn 0.8696 0.0000 -0.4937
vn 0.8919 0.3258 -0.3136
vn 0.5447 -0.6758 -0.4966
vn 0.5802 -0.3421 -0.7391
vn 0.2005 -0.3989 -0.8948
vn 0.2005 0.3989 -0.8948
vn 0.5802 0.3421 -0.7391
vn 0.5447 0.6758 -0.4966
vn -0.9911 -0.1148 0.0663
vn -0.8919 -0.4345 -0.1253
vn -0.8696 -0.4276 0.2469
vn -0.8919 -0.1087 0.4390
vn -0.5447 -0.7679 -0.3370
vn -0.5802 -0.8111 0.0733
vn -0.2005 -0.9744 0.1019
vn -0.2005 -0.5755 0.7928
vn -0.5802 -0.4690 0.6658
vn -0.5447 -0.0921 0.8335
vn 0.8919 -0.1087 0.4390
vn 0.8696 -0.4276 0.2469
vn 0.8919 -0.4345 -0.1253
vn 0.5447 -0.0921 0.8335
vn 0.5802 -0.4690 0.6658
vn 0.2005 -0.5755 0.7928
vn 0.2005 -0.9744 0.1019
vn 0.5802 -0.8111 0.0733
vn 0.5447 -0.7679 -0.3370
vn -0.9911 0.1148 0.0663
vn -0.8919 0.1087 0.4390
vn -0.8696 0.4276 0.2469
vn -0.8919 0.4345 -0.1253
vn -0.5447 0.0921 0.8335
vn -0.5802 0.4690 0.6658
vn -0.2005 0.5755 0.7928
vn -0.2005 0.9744 0.1019
vn -0.5802 0.8111 0.0732
vn -0.5447 0.7679 -0.3370
vn 0.8919 0.4345 -0.1253
vn 0.8696 0.4276 0.2469
vn 0.8919 0.1087 0.4390
vn 0.5447 0.7679 -0.3370
vn 0.5802 0.8111 0.0733
vn 0.2005 0.9744 0.1019
vn 0.2005 0.5755 0.7928
vn 0.5802 0.4690 0.6658
vn 0.5447 0.0921 0.8335
s 1
f 51/1/1 62/2/2 15/3/3 2/4/4
f 27/5/5 38/6/6 63/7/7 50/8/8
f 37/9/9 13/10/10 61/11/11
f 3/12/12 14/13/13 39/14/14 26/15/15
f 1/16/16 4/17/17 6/18/18 5/19/19
f 4/17/17 8/20/20 9/21/21 6/18/18
f 2/4/4 7/22/22 9/23/21 8/24/20
f 7/22/22 11/25/23 12/26/24 9/23/21
f 3/12/12 10/27/25 12/28/24 11/29/23
f 10/27/25 5/30/19 6/31/18 12/28/24
f 6/18/18 9/21/21 12/32/24
f 13/10/10 16/33/26 18/34/27 17/35/28
f 16/33/26 20/36/29 21/37/30 18/34/27
f 14/13/13 19/38/31 21/39/30 20/40/29
f 19/38/31 23/41/32 24/42/33 21/39/30
f 15/3/3 22/43/34 24/44/33 23/45/32
f 22/43/34 17/46/28 18/47/27 24/44/33
f 18/34/27 21/37/30 24/48/33
f 25/49/35 28/50/36 30/51/37 29/52/38
f 28/50/36 32/53/39 33/54/40 30/51/37
f 26/15/15 31/55/41 33/56/40 32/57/39
f 31/55/41 35/58/42 36/59/43 33/56/40
f 27/5/5 34/60/44 36/59/43 35/58/42
f 34/60/44 29/61/38 30/62/37 36/59/43
f 30/51/37 33/54/40 36/63/43
f 37/9/9 40/64/45 42/65/46 41/66/47
f 40/64/45 44/67/48 45/68/49 42/65/46
f 38/6/6 43/69/50 45/70/49 44/71/48
f 43/69/50 47/72/51 48/73/52 45/70/49
f 39/14/14 46/74/53 48/73/52 47/72/51
f 46/74/53 41/75/47 42/76/46 48/73/52
f 42/65/46 45/68/49 48/77/52
f 49/78/54 52/79/55 54/80/56 53/81/57
f 52/79/55 56/82/58 57/83/59 54/80/56
f 50/8/8 55/84/60 57/85/59 56/86/58
f 55/84/60 59/87/61 60/88/62 57/85/59
f 51/1/1 58/89/63 60/88/62 59/87/61
f 58/89/63 53/90/57 54/91/56 60/88/62
f 54/80/56 57/83/59 60/92/62
f 61/11/11 64/93/64 66/94/65 65/95/66
f 64/93/64 68/96/67 69/97/68 66/94/65
f 62/2/2 67/98/69 69/99/68 68/100/67
f 67/98/69 71/101/70 72/102/71 69/99/68
f 63/7/7 70/103/72 72/102/71 71/101/70
f 70/103/72 65/104/66 66/105/65 72/102/71
f 66/94/65 69/97/68 72/106/71
f 3/12/12 26/15/15 32/57/39 10/27/25
f 10/27/25 32/57/39 28/107/36 5/30/19
f 5/19/19 28/50/36 25/49/35 1/16/16
f 39/14/14 14/13/13 20/40/29 46/74/53
f 46/74/53 20/40/29 16/108/26 41/75/47
f 41/66/47 16/33/26 13/10/10 37/9/9
f 2/4/4 15/3/3 23/45/32 7/22/22
f 7/22/22 23/45/32 19/109/31 11/25/23
f 11/29/23 19/38/31 14/13/13 3/12/12
f 38/6/6 27/5/5 35/58/42 43/69/50
f 43/69/50 35/58/42 31/55/41 47/72/51
f 47/72/51 31/55/41 26/15/15 39/14/14
f 27/5/5 50/8/8 56/86/58 34/60/44
f 34/60/44 56/86/58 52/110/55 29/61/38
f 29/52/38 52/79/55 49/78/54 25/49/35
f 63/7/7 38/6/6 44/71/48 70/103/72
f 70/103/72 44/71/48 40/111/45 65/104/66
f 65/95/66 40/64/45 37/9/9 61/11/11
f 62/2/2 51/1/1 59/87/61 67/98/69
f 67/98/69 59/87/61 55/84/60 71/101/70
f 71/101/70 55/84/60 50/8/8 63/7/7
f 51/1/1 2/4/4 8/24/20 58/89/63
f 58/89/63 8/24/20 4/112/17 53/90/57
f 53/81/57 4/17/17 1/16/16 49/78/54
f 15/3/3 62/2/2 68/100/67 22/43/34
f 22/43/34 68/100/67 64/113/64 17/46/28
f 17/35/28 64/93/64 61/11/11 13/10/10
f 1/16/16 25/49/35 49/78/54
